<svg width="144" height="36" viewBox="0 0 144 36" fill="none" xmlns="http://www.w3.org/2000/svg" role="img" aria-labelledby="title desc">
  <title id="title">RelayDesk</title>
  <desc id="desc">RelayDesk abstract loop mark and wordmark</desc>
  <rect width="36" height="36" rx="10" fill="#063b3b"/>
  <path d="M10 18c0-4.6 3.6-8.2 8.2-8.2h3.9c3 0 5.4 2.4 5.4 5.4s-2.4 5.4-5.4 5.4h-6.6" stroke="#42e0c6" stroke-width="3" stroke-linecap="round"/>
  <path d="M26 18c0 4.6-3.6 8.2-8.2 8.2h-3.9c-3 0-5.4-2.4-5.4-5.4s2.4-5.4 5.4-5.4h6.6" stroke="#d7fff6" stroke-width="3" stroke-linecap="round"/>
  <path d="M49.4 24V11.3h5.4c2.8 0 4.6 1.5 4.6 3.9 0 1.8-1 3.1-2.7 3.6l3.2 5.2h-3.3l-2.8-4.8h-1.6V24h-2.8Zm2.8-7.1h2.3c1.3 0 2-.6 2-1.7 0-1.1-.7-1.7-2-1.7h-2.3v3.4Zm13.7 7.3c-3 0-5-2-5-4.9 0-3 2-5.1 4.8-5.1 2.7 0 4.6 1.9 4.6 4.8v.8h-6.8c.2 1.4 1.1 2.2 2.5 2.2 1 0 1.8-.4 2.3-1.1l1.8 1.3c-.9 1.3-2.3 2-4.2 2Zm-2.3-6.1h4.2c-.1-1.1-.9-1.8-2.1-1.8-1.1 0-1.9.7-2.1 1.8ZM72.1 24V10.6h2.7V24h-2.7Zm8.3.2c-1.8 0-3-1.1-3-2.7 0-1.8 1.4-2.9 4-3l2.2-.1v-.4c0-1-.6-1.5-1.7-1.5-1 0-1.6.4-1.8 1.1h-2.4c.2-2 1.9-3.4 4.4-3.4 2.6 0 4.2 1.4 4.2 3.6V24h-2.5v-1.2h-.1c-.6.9-1.8 1.4-3.3 1.4Zm.9-2c1.3 0 2.3-.8 2.3-1.9v-.5l-1.8.1c-1.2.1-1.8.5-1.8 1.3 0 .6.5 1 1.3 1Zm7.8 5.4c-.5 0-.9 0-1.2-.1v-2.2c.2.1.5.1.8.1.9 0 1.4-.4 1.7-1.2l.1-.3-3.6-9.4h2.9l2.1 6.7h.1l2.1-6.7H97l-3.7 9.9c-.8 2.2-2 3.2-4.2 3.2ZM99 24V11.3h4.9c3.9 0 6.3 2.4 6.3 6.3 0 4-2.4 6.4-6.4 6.4H99Zm2.8-2.4h1.8c2.4 0 3.7-1.4 3.7-4 0-2.5-1.3-3.9-3.7-3.9h-1.8v7.9Zm15.1 2.6c-3 0-5-2-5-4.9 0-3 2-5.1 4.8-5.1 2.7 0 4.6 1.9 4.6 4.8v.8h-6.8c.2 1.4 1.1 2.2 2.5 2.2 1 0 1.8-.4 2.3-1.1l1.8 1.3c-.9 1.3-2.3 2-4.2 2Zm-2.3-6.1h4.2c-.1-1.1-.9-1.8-2.1-1.8-1.1 0-1.9.7-2.1 1.8Zm12.3 6.1c-2.5 0-4.1-1.2-4.3-3.2h2.6c.1.8.8 1.2 1.8 1.2s1.6-.4 1.6-1c0-.5-.4-.8-1.3-1l-1.8-.4c-1.8-.4-2.7-1.3-2.7-2.7 0-1.8 1.6-3 4-3 2.3 0 3.9 1.2 4 3.1h-2.5c-.1-.7-.7-1.1-1.6-1.1-.9 0-1.4.4-1.4.9 0 .5.4.8 1.2 1l1.9.4c1.9.4 2.8 1.3 2.8 2.8 0 1.8-1.7 3-4.3 3Zm6.2-.2V10.6h2.7v7.5h.1l3.1-3.6h3.1l-3.5 3.9 3.8 5.6h-3.2l-2.6-3.8-.8.8v3h-2.7Z" fill="#173735"/>
</svg>
